MoBL_ARMS_module2_4_allmuscles_shoulder_states	
version=1	
nRows=336	
nColumns=2	
inDegrees=yes	
	
# SIMM Motion File Header:	
name MoBL_ARMS_module2_4_allmuscles_shoulder_states	
datacolumns 2	
datarows 336	
otherdata 1	
range 4.917028219 5.590149244	
endheader	
time	shoulder_elv
4.917028219	11.62659039
4.918827898	11.60145742
4.920627578	11.57656994
4.922427257	11.55192739
4.924226936	11.52752965
4.926026615	11.5033762
4.927826294	11.47946693
4.929625973	11.45580138
4.931425653	11.43237946
4.933225332	11.40920068
4.935025011	11.38626493
4.93682469	11.36357169
4.938624369	11.34112082
4.940424048	11.31891182
4.942223727	11.29694455
4.944023407	11.27521848
4.945823086	11.25373343
4.947622765	11.2324888
4.949422444	11.21148433
4.951222123	11.19071935
4.953021802	11.17019354
4.954821482	11.1499062
4.956621161	11.12985701
4.95842084	11.11004524
4.960220519	11.0904705
4.962020198	11.07113195
4.963819877	11.052029
4.965619556	11.03316061
4.967419236	11.01452603
4.969218915	10.99612412
4.971018594	10.97795409
4.972818273	10.96001481
4.974617952	10.9423055
4.976417631	10.92482506
4.978217311	10.90757276
4.98001699	10.89054748
4.981816669	10.8737484
4.983616348	10.85717431
4.985416027	10.84082426
4.987215706	10.82469693
4.989015386	10.80879129
4.990815065	10.79310598
4.992614744	10.77763999
4.994414423	10.76239199
4.996214102	10.74736101
4.998013781	10.73254572
4.99981346	10.71794509
5.00161314	10.70355768
5.003412819	10.6893823
5.005581987	10.67257604
5.007751156	10.65607311
5.009488324	10.64307337
5.011225492	10.63026486
5.01456686	10.60616104
5.016283521	10.59404703
5.018000182	10.58211424
5.022677015	10.55051537
5.024438952	10.53895103
5.026200888	10.52756945
5.028990948	10.50991702
5.030444545	10.50089843
5.032245855	10.48989011
5.034920881	10.47388105
5.036078712	10.46707616
5.038138317	10.45515481
5.041906897	10.4339419
5.043184688	10.4269236
5.044462479	10.41999222
5.046845217	10.40729756
5.049406231	10.39398381
5.052153522	10.38007665
5.053231904	10.37472334
5.055128282	10.36545049
5.058441371	10.34967944
5.059614219	10.34422565
5.061149905	10.3371849
5.064132169	10.32383429
5.06568636	10.31704312
5.067585332	10.30889768
5.069903125	10.29918026
5.072220918	10.28970663
5.075027198	10.27855714
5.076138329	10.27423833
5.078152787	10.26654518
5.081569608	10.25389383
5.08272353	10.24973255
5.084377492	10.24386474
5.088060793	10.23120118
5.089813978	10.22536636
5.091567164	10.21965425
5.09474794	10.20959929
5.096227214	10.20505813
5.098070255	10.19951707
5.100597287	10.1921287
5.102379492	10.18706196
5.104524354	10.18112015
5.106669216	10.17534733
5.108299404	10.17107138
5.109929591	10.16689106
5.112943536	10.15941153
5.114044304	10.15675963
5.115663804	10.15293495
5.119858027	10.14345066
5.121510406	10.13987873
5.123162785	10.13639894
5.126184878	10.13026956
5.127287059	10.12810968
5.128904493	10.12501129
5.132758285	10.1179697
5.134347683	10.1152031
5.136284432	10.1119376
5.138221182	10.10878684
5.140157931	10.10574987
5.14209468	10.10282533
5.14403143	10.1000115
5.148541905	10.0938793
5.149546253	10.09259192
5.150803078	10.0910196
5.154152522	10.0870359
5.156097414	10.08485782
5.159328585	10.08145311
5.160438596	10.08034358
5.162166565	10.07867612
5.166634499	10.07469223
5.16801926	10.0735536
5.170573761	10.07156361
5.17205365	10.07047474
5.174734524	10.06861819
5.175962966	10.06781621
5.178221861	10.06641987
5.182428313	10.06408255
5.184095119	10.06324716
5.185761924	10.06246139
5.189152657	10.06101154
5.190377856	10.06053633
5.191603055	10.06008536
5.194115439	10.05923492
5.196229896	10.05859477
5.198922258	10.0578771
5.200104235	10.05759521
5.202151566	10.0571533
5.205791608	10.05650754
5.209431649	10.05604447
5.210702255	10.0559209
5.21197286	10.05581637
5.214260348	10.05567496
5.218958407	10.05556445
5.219953236	10.05557072
5.221239663	10.05559368
5.224725519	10.05573731
5.227335977	10.05591887
5.228406356	10.05601053
5.230192892	10.05618482
5.234407221	10.05669491
5.235792612	10.05689339
5.237178004	10.05710435
5.238975153	10.05739537
5.241753269	10.05787958
5.243079445	10.05812364
5.245213333	10.05853123
5.247064368	10.0588971
5.249624563	10.05941685
5.252184758	10.05994588
5.25372238	10.06026508
5.255260003	10.0605827
5.258426496	10.06122294
5.25957844	10.06144828
5.261153688	10.06174667
5.264157444	10.06227577
5.265716183	10.06252505
5.267274922	10.06275326
5.270749498	10.06317316
5.272030388	10.06329332
5.273311278	10.06339151
5.275375092	10.06349966
5.278635622	10.06353026
5.279769516	10.06349631
5.28156147	10.06339148
5.28459752	10.06305964
5.28613781	10.06281139
5.2876781	10.06250567
5.289948697	10.06194429
5.291256864	10.06155793
5.29308322	10.06093765
5.295076919	10.06014807
5.297070619	10.05923539
5.299064319	10.05819394
5.300684591	10.05724886
5.302304864	10.05621208
5.303925136	10.05508074
5.306106522	10.05340325
5.307889093	10.05189672
5.309671665	10.05026427
5.311454236	10.04850252
5.314738491	10.04490668
5.316019763	10.04337751
5.318249678	10.04054178
5.319802826	10.03843328
5.322276556	10.03484365
5.323462217	10.03302039
5.325336985	10.02999905
5.327552689	10.02620581
5.329330756	10.0229842
5.331108824	10.01960168
5.333280066	10.01524926
5.335451309	10.01064863
5.337622551	10.00579557
5.339386701	10.00166355
5.341150851	9.997360041
5.343192666	9.992162103
5.344963482	9.987463235
5.346734299	9.982584813
5.351315988	9.969119541
5.352881869	9.964233797
5.355751046	9.954897885
5.356906195	9.95099767
5.358711778	9.944737191
5.361007034	9.936487914
5.362736175	9.930056551
5.364465316	9.92343707
5.367336265	9.912027649
5.369423829	9.903399838
5.371214543	9.895774362
5.373005256	9.887940208
5.37653233	9.87189323
5.378170874	9.864161863
5.379809418	9.856250961
5.382100496	9.844886884
5.384391574	9.833167747
5.386005542	9.824697756
5.38761951	9.816050119
5.391076396	9.796927658
5.392723472	9.787528137
5.394370548	9.777940489
5.397944696	9.756487086
5.399631125	9.746055105
5.401317555	9.735424221
5.40349916	9.721375693
5.405149662	9.71052488
5.406800164	9.699481922
5.411147289	9.669476559
5.412618642	9.659017426
5.414089994	9.648404135
5.415561347	9.637636817
5.418655278	9.614492761
5.419844347	9.605416489
5.421443161	9.593053653
5.423568668	9.576335715
5.425223554	9.563096068
5.426878441	9.549660852
5.429222182	9.530298491
5.430812118	9.516940209
5.432402054	9.503401438
5.43571549	9.474606784
5.436945945	9.463714426
5.438810475	9.447003424
5.440537571	9.431303342
5.442686492	9.411472455
5.444835413	9.391313548
5.446984333	9.370827137
5.449133254	9.350013844
5.451282175	9.328874229
5.453431096	9.307409337
5.454811567	9.293448769
5.456946252	9.271597508
5.458380372	9.256738181
5.460132957	9.238383985
5.461885543	9.219815626
5.463638128	9.20103364
5.465390713	9.182038608
5.46790584	9.154407844
5.470069611	9.13028837
5.471716938	9.111710159
5.473364265	9.09294637
5.475662703	9.066456982
5.477267261	9.047752007
5.478871818	9.028872772
5.483130756	8.977923159
5.484563938	8.960504975
5.485997119	8.942949856
5.487430301	8.925258461
5.490244151	8.89012954
5.491410831	8.875411785
5.493100529	8.853938389
5.495125568	8.827958538
5.496842147	8.80572806
5.498558726	8.783307745
5.500589983	8.7565335
5.50232939	8.733397195
5.504068797	8.710069166
5.506057093	8.683169687
5.507831548	8.658954195
5.509606002	8.634542703
5.511447741	8.608999547
5.51328948	8.583247888
5.515131219	8.557289065
5.516722697	8.534691815
5.518673884	8.506778781
5.520625072	8.478637841
5.522192048	8.455874345
5.524296076	8.425081282
5.526400104	8.394029112
5.528599301	8.361297847
5.530798497	8.328288878
5.532608327	8.300917402
5.534418157	8.273360847
5.536034313	8.24859818
5.537650468	8.223690325
5.539266623	8.198638437
5.541473934	8.164192433
5.543681245	8.129482842
5.544893885	8.110303058
5.546767139	8.08052114
5.548460426	8.053441376
5.550608066	8.018880419
5.552755707	7.984081621
5.554903348	7.949047902
5.557050988	7.913781958
5.558795785	7.884962415
5.560540583	7.855993064
5.56228538	7.826875697
5.564035297	7.797525741
5.565785214	7.768030237
5.567535131	7.738390671
5.569632495	7.702678884
5.571394195	7.672526538
5.573155895	7.642233835
5.575153012	7.607725351
5.576944622	7.57661844
5.578736233	7.545371901
5.580504632	7.514395305
5.58227303	7.483286481
5.584041429	7.452047334
5.587511663	7.390372388
5.588830453	7.366810647
5.590149244	7.343179854
